<svg width="70" height="70" viewBox="0 0 70 70" fill="none" xmlns="http://www.w3.org/2000/svg">
<rect width="70" height="70" rx="8" fill="#F1F6FE"/>
<path d="M28.5 36V29.5C28.5333 28.945 29.0633 28.4667 29.6867 28.5C30.4367 28.4667 30.9683 28.945 31.0033 29.5683L31 36C31 36.3315 31.1317 36.6495 31.3661 36.8839C31.6005 37.1183 31.9185 37.25 32.25 37.25C32.5815 37.25 32.8995 37.1183 33.1339 36.8839C33.3683 36.6495 33.5 36.3315 33.5 36V29.5C33.3883 27.4333 31.685 25.9 29.6867 26.0017C27.815 25.9017 26.1117 27.435 26.0033 29.4317L26 36C26 36.3315 26.1317 36.6495 26.3661 36.8839C26.6005 37.1183 26.9185 37.25 27.25 37.25C27.5815 37.25 27.8995 37.1183 28.1339 36.8839C28.3683 36.6495 28.5 36.3315 28.5 36ZM27.25 33.5H32.25C32.5815 33.5 32.8995 33.3683 33.1339 33.1339C33.3683 32.8995 33.5 32.5815 33.5 32.25C33.5 31.9185 33.3683 31.6005 33.1339 31.3661C32.8995 31.1317 32.5815 31 32.25 31H27.25C26.9185 31 26.6005 31.1317 26.3661 31.3661C26.1317 31.6005 26 31.9185 26 32.25C26 32.5815 26.1317 32.8995 26.3661 33.1339C26.6005 33.3683 26.9185 33.5 27.25 33.5ZM39.75 48.5H43.5V49.75H39.75L41 51V47.25L39.75 48.5ZM39.75 46C39.4185 46 39.1005 46.1317 38.8661 46.3661C38.6317 46.6005 38.5 46.9185 38.5 47.25V51C38.5 51.69 39.06 52.25 39.75 52.25H43.5C44.163 52.25 44.7989 51.9866 45.2678 51.5178C45.7366 51.0489 46 50.4131 46 49.75V48.5C46 47.837 45.7366 47.2011 45.2678 46.7322C44.7989 46.2634 44.163 46 43.5 46H39.75ZM39.75 44.75H43.5V46H39.75L41 47.25V43.5L39.75 44.75ZM39.75 42.25C39.4185 42.25 39.1005 42.3817 38.8661 42.6161C38.6317 42.8505 38.5 43.1685 38.5 43.5V47.25C38.5 47.94 39.06 48.5 39.75 48.5H43.5C44.163 48.5 44.7989 48.2366 45.2678 47.7678C45.7366 47.2989 46 46.6631 46 46V44.75C46 44.087 45.7366 43.4511 45.2678 42.9822C44.7989 42.5134 44.163 42.25 43.5 42.25H39.75ZM27.25 44.75V52.885C27.2548 53.7134 27.5876 54.5062 28.1754 55.0899C28.7632 55.6737 29.5582 56.0009 30.3867 56H53C53.792 56.0031 54.5528 55.6917 55.1153 55.1342C55.6778 54.5767 55.996 53.8187 56 53.0267V34.1133C55.9947 33.2849 55.6616 32.4923 55.0735 31.9089C54.4853 31.3255 53.6901 30.9987 52.8617 31H48.5C48.1685 31 47.8505 31.1317 47.6161 31.3661C47.3817 31.6005 47.25 31.9185 47.25 32.25C47.25 32.5815 47.3817 32.8995 47.6161 33.1339C47.8505 33.3683 48.1685 33.5 48.5 33.5H52.865C53.215 33.5 53.4983 33.7783 53.5 34.125V53.0133C53.4996 53.0777 53.4865 53.1413 53.4614 53.2006C53.4364 53.2599 53.3999 53.3137 53.3541 53.3589C53.3083 53.404 53.2541 53.4398 53.1944 53.464C53.1348 53.4882 53.071 53.5005 53.0067 53.5H30.385C30.2179 53.5005 30.0574 53.4348 29.9384 53.3175C29.8195 53.2001 29.7518 53.0404 29.75 52.8733V44.75C29.75 44.4185 29.6183 44.1005 29.3839 43.8661C29.1495 43.6317 28.8315 43.5 28.5 43.5C28.1685 43.5 27.8505 43.6317 27.6161 43.8661C27.3817 44.1005 27.25 44.4185 27.25 44.75ZM48.5 39.75H54.75C55.0815 39.75 55.3995 39.6183 55.6339 39.3839C55.8683 39.1495 56 38.8315 56 38.5C56 38.1685 55.8683 37.8505 55.6339 37.6161C55.3995 37.3817 55.0815 37.25 54.75 37.25H48.5C48.1685 37.25 47.8505 37.3817 47.6161 37.6161C47.3817 37.8505 47.25 38.1685 47.25 38.5C47.25 38.8315 47.3817 39.1495 47.6161 39.3839C47.8505 39.6183 48.1685 39.75 48.5 39.75ZM44.75 38.0183V19.1133C44.7447 18.2849 44.4116 17.4923 43.8235 16.9089C43.2353 16.3255 42.4401 15.9987 41.6117 16H19.125C18.301 15.9978 17.5096 16.322 16.924 16.9017C16.3384 17.4813 16.0062 18.2694 16 19.0933V37.885C16.0048 38.7134 16.3376 39.5062 16.9254 40.0899C17.5132 40.6737 18.3082 41.0009 19.1367 41H41.75C42.542 41.0031 43.3028 40.6917 43.8653 40.1342C44.4278 39.5767 44.746 38.8187 44.75 38.0267V38.0183ZM42.25 38.0117C42.2498 38.0762 42.2368 38.14 42.2119 38.1995C42.187 38.2589 42.1505 38.3129 42.1047 38.3583C42.0589 38.4036 42.0045 38.4395 41.9448 38.4638C41.8851 38.4882 41.8212 38.5005 41.7567 38.5H19.135C18.9679 38.5005 18.8074 38.4348 18.6884 38.3175C18.5695 38.2001 18.5018 38.0404 18.5 37.8733V19.1033C18.5035 18.9415 18.5705 18.7876 18.6865 18.6747C18.8024 18.5618 18.9582 18.4991 19.12 18.5H41.6167C41.9667 18.5 42.25 18.7783 42.2517 19.125V38.0167L42.25 38.0117ZM17.25 24.75H43.5C43.8315 24.75 44.1495 24.6183 44.3839 24.3839C44.6183 24.1495 44.75 23.8315 44.75 23.5C44.75 23.1685 44.6183 22.8505 44.3839 22.6161C44.1495 22.3817 43.8315 22.25 43.5 22.25H17.25C16.9185 22.25 16.6005 22.3817 16.3661 22.6161C16.1317 22.8505 16 23.1685 16 23.5C16 23.8315 16.1317 24.1495 16.3661 24.3839C16.6005 24.6183 16.9185 24.75 17.25 24.75Z" fill="#006CE4"/>
</svg>
