<svg width="70" height="70" viewBox="0 0 70 70" fill="none" xmlns="http://www.w3.org/2000/svg">
<rect width="70" height="70" rx="8" fill="#F1F6FE"/>
<path d="M49.5833 38.672L40.9833 40.3153C40.6576 40.3772 40.3697 40.566 40.1831 40.8401C39.9965 41.1142 39.9264 41.4512 39.9883 41.777C40.0502 42.1028 40.239 42.3906 40.5131 42.5772C40.7872 42.7638 41.1242 42.8339 41.45 42.772L50.05 41.1287C50.2113 41.098 50.365 41.0359 50.5023 40.9459C50.6396 40.8558 50.7578 40.7396 50.8502 40.6039C50.9426 40.4682 51.0074 40.3156 51.0408 40.1548C51.0742 39.9941 51.0756 39.8283 51.045 39.667C51.0144 39.5057 50.9522 39.352 50.8622 39.2147C50.7722 39.0774 50.656 38.9592 50.5202 38.8668C50.3845 38.7744 50.2319 38.7096 50.0712 38.6762C49.9104 38.6428 49.7446 38.6413 49.5833 38.672ZM39.6333 28.9437L33.855 30.8537C33.6993 30.9051 33.5301 30.8973 33.3797 30.8318C33.2293 30.7663 33.1084 30.6477 33.04 30.4987C32.9632 30.336 32.9528 30.1498 33.011 29.9796C33.0692 29.8094 33.1914 29.6686 33.3517 29.587L38.9467 26.7737C39.2712 26.6098 39.6259 26.5143 39.9889 26.4931C40.3518 26.4719 40.7152 26.5254 41.0567 26.6503L49.345 29.6837C49.4993 29.7401 49.6632 29.7656 49.8274 29.7588C49.9916 29.7519 50.1528 29.7127 50.3018 29.6436C50.4508 29.5744 50.5848 29.4765 50.696 29.3556C50.8072 29.2346 50.8935 29.093 50.95 28.9387C51.0065 28.7844 51.032 28.6204 51.0251 28.4563C51.0182 28.2921 50.9791 28.1309 50.9099 27.9819C50.8407 27.8328 50.7429 27.6989 50.6219 27.5877C50.501 27.4764 50.3593 27.3901 50.205 27.3337L41.9167 24.3053C41.2542 24.0624 40.549 23.9581 39.8446 23.9988C39.1402 24.0395 38.4517 24.2244 37.8217 24.542L32.225 27.3553C31.4857 27.7292 30.9207 28.3759 30.6495 29.1587C30.3782 29.9416 30.4221 30.7992 30.7717 31.5503C31.0981 32.2556 31.6726 32.8161 32.3856 33.1253C33.0986 33.4345 33.9004 33.4707 34.6383 33.227L40.4167 31.317C40.5762 31.2686 40.7244 31.1888 40.8526 31.0822C40.9809 30.9757 41.0865 30.8446 41.1633 30.6966C41.2401 30.5487 41.2865 30.3868 41.2998 30.2207C41.3131 30.0545 41.2931 29.8873 41.2408 29.729C41.1886 29.5707 41.1052 29.4245 40.9956 29.2989C40.8859 29.1733 40.7523 29.0709 40.6025 28.9977C40.4527 28.9245 40.2898 28.882 40.1234 28.8728C39.9569 28.8635 39.7903 28.8876 39.6333 28.9437ZM22.1433 41.1637H26.2167L25.2833 40.747L31.1367 47.3053C31.7421 48.0003 32.5982 48.4269 33.5176 48.4919C34.4369 48.5569 35.3445 48.2549 36.0417 47.652C36.8083 46.9903 37.25 46.027 37.25 45.0137V43.9887H36L35.5367 45.1487L35.8283 45.2653C36.4366 45.5085 37.0952 45.5989 37.7465 45.5287C38.3978 45.4584 39.0219 45.2297 39.5644 44.8626C40.1069 44.4954 40.5512 44.0009 40.8584 43.4223C41.1656 42.8437 41.3264 42.1987 41.3267 41.5437H40.0767V42.7937H40.8917C41.5779 42.7933 42.2505 42.602 42.8342 42.2411C43.4178 41.8802 43.8895 41.364 44.1964 40.7502C44.5033 40.1364 44.6333 39.4493 44.5718 38.7658C44.5103 38.0824 44.2598 37.4295 43.8483 36.8803L38.6017 30.1587C38.5032 30.0227 38.3783 29.9081 38.2345 29.8215C38.0907 29.7349 37.9309 29.6781 37.7647 29.6546C37.5985 29.6311 37.4293 29.6413 37.2671 29.6846C37.1049 29.7279 36.9531 29.8034 36.8208 29.9067C36.6884 30.0099 36.5782 30.1387 36.4967 30.2855C36.4153 30.4323 36.3642 30.5939 36.3465 30.7608C36.3289 30.9278 36.345 31.0965 36.394 31.2571C36.443 31.4176 36.5238 31.5667 36.6317 31.6953L41.8633 38.3987C41.9918 38.5774 42.0685 38.7882 42.0849 39.0077C42.1013 39.2273 42.0569 39.4471 41.9564 39.643C41.856 39.8389 41.7034 40.0033 41.5156 40.1181C41.3277 40.2329 41.1118 40.2936 40.8917 40.2937H40.0767C39.7451 40.2937 39.4272 40.4254 39.1928 40.6598C38.9584 40.8942 38.8267 41.2121 38.8267 41.5437C38.8271 41.7904 38.7669 42.0336 38.6514 42.2516C38.5358 42.4697 38.3685 42.656 38.1641 42.7943C37.9597 42.9326 37.7244 43.0185 37.479 43.0445C37.2336 43.0706 36.9856 43.0359 36.7567 42.9437L36.4633 42.827C36.2736 42.7513 36.0683 42.7232 35.8652 42.7452C35.6621 42.7673 35.4676 42.8387 35.2985 42.9533C35.1295 43.068 34.9911 43.2223 34.8954 43.4027C34.7998 43.5832 34.7499 43.7844 34.75 43.9887V45.0137C34.7497 45.2148 34.6879 45.411 34.5729 45.5761C34.4579 45.7411 34.2952 45.867 34.1067 45.937C33.9181 46.007 33.7126 46.0177 33.5178 45.9676C33.323 45.9176 33.1481 45.8092 33.0167 45.657L27.15 39.082C27.0327 38.9504 26.8889 38.8451 26.7281 38.773C26.5672 38.7009 26.3929 38.6636 26.2167 38.6637H22.1417C21.8101 38.6637 21.4922 38.7954 21.2578 39.0298C21.0234 39.2642 20.8917 39.5821 20.8917 39.9137C20.8917 40.2452 21.0234 40.5631 21.2578 40.7975C21.4922 41.032 21.8101 41.1637 22.1417 41.1637H22.1433ZM34.435 27.077L33.8383 26.5853C33.0114 25.9612 32.0044 25.622 30.9683 25.6187C30.3633 25.6187 29.7633 25.7353 29.2017 25.9603L21.7883 28.927C21.4928 29.0582 21.2596 29.2988 21.1377 29.5983C21.0158 29.8978 21.0147 30.2329 21.1346 30.5332C21.2546 30.8335 21.4862 31.0756 21.7809 31.2087C22.0756 31.3418 22.4104 31.3555 22.715 31.247L30.1333 28.2803C30.4883 28.1386 30.8734 28.0897 31.2525 28.1381C31.6316 28.1865 31.9921 28.3307 32.3 28.557L32.845 29.007C33.1009 29.2178 33.4301 29.3184 33.7602 29.2865C34.0903 29.2546 34.3942 29.0929 34.605 28.837C34.8158 28.5811 34.9164 28.2518 34.8845 27.9218C34.8526 27.5917 34.6909 27.2878 34.435 27.077ZM17.25 28.5003H20.5833C20.8283 28.492 20.9917 28.6403 21 28.8337V39.472C20.9917 39.6087 20.8283 39.7587 20.6333 39.752L17.25 39.7503C16.9185 39.7503 16.6005 39.882 16.3661 40.1164C16.1317 40.3509 16 40.6688 16 41.0003C16 41.3318 16.1317 41.6498 16.3661 41.8842C16.6005 42.1186 16.9185 42.2503 17.25 42.2503H20.5833C22.1 42.3137 23.4267 41.097 23.5 39.5287V28.7787C23.4267 27.152 22.1 25.937 20.5317 26.0037L17.25 26.0003C16.9185 26.0003 16.6005 26.132 16.3661 26.3664C16.1317 26.6009 16 26.9188 16 27.2503C16 27.5818 16.1317 27.8998 16.3661 28.1342C16.6005 28.3686 16.9185 28.5003 17.25 28.5003ZM54.75 39.7503H51.4167C51.1717 39.7587 51.0083 39.6087 51 39.4153V28.777C51.0083 28.6403 51.1717 28.492 51.365 28.4987L54.75 28.5003C55.0815 28.5003 55.3995 28.3686 55.6339 28.1342C55.8683 27.8998 56 27.5818 56 27.2503C56 26.9188 55.8683 26.6009 55.6339 26.3664C55.3995 26.132 55.0815 26.0003 54.75 26.0003H51.4167C49.9 25.9353 48.5733 27.1503 48.5 28.7203V39.472C48.5733 41.097 49.9 42.3137 51.4667 42.2487L54.75 42.2503C55.0815 42.2503 55.3995 42.1186 55.6339 41.8842C55.8683 41.6498 56 41.3318 56 41.0003C56 40.6688 55.8683 40.3509 55.6339 40.1164C55.3995 39.882 55.0815 39.7503 54.75 39.7503ZM36.8833 43.1053L35.2533 41.4753C35.1389 41.3525 35.0009 41.254 34.8476 41.1857C34.6942 41.1174 34.5287 41.0806 34.3609 41.0777C34.193 41.0747 34.0263 41.1056 33.8707 41.1685C33.715 41.2313 33.5736 41.3249 33.4549 41.4436C33.3362 41.5623 33.2427 41.7037 33.1798 41.8593C33.1169 42.015 33.0861 42.1817 33.089 42.3495C33.092 42.5174 33.1287 42.6829 33.197 42.8362C33.2654 42.9895 33.3639 43.1276 33.4867 43.242L35.1167 44.872C35.2311 44.9948 35.3691 45.0933 35.5224 45.1616C35.6758 45.2299 35.8413 45.2667 36.0091 45.2696C36.177 45.2726 36.3437 45.2417 36.4993 45.1789C36.655 45.116 36.7964 45.0224 36.9151 44.9037C37.0338 44.785 37.1273 44.6436 37.1902 44.488C37.2531 44.3323 37.2839 44.1656 37.281 43.9978C37.278 43.8299 37.2413 43.6644 37.173 43.5111C37.1046 43.3578 37.0061 43.2198 36.8833 43.1053ZM40.96 40.6603L38.5133 38.2137C38.3989 38.0908 38.2609 37.9923 38.1076 37.924C37.9542 37.8557 37.7887 37.819 37.6209 37.816C37.453 37.813 37.2863 37.8439 37.1307 37.9068C36.975 37.9697 36.8336 38.0632 36.7149 38.1819C36.5962 38.3006 36.5027 38.442 36.4398 38.5977C36.3769 38.7533 36.3461 38.92 36.349 39.0879C36.352 39.2557 36.3887 39.4212 36.457 39.5746C36.5254 39.7279 36.6239 39.8659 36.7467 39.9803L39.1933 42.427C39.3078 42.5498 39.4458 42.6483 39.5991 42.7166C39.7524 42.7849 39.918 42.8217 40.0858 42.8246C40.2536 42.8276 40.4203 42.7967 40.576 42.7339C40.7316 42.671 40.873 42.5774 40.9917 42.4587C41.1104 42.34 41.204 42.1986 41.2669 42.043C41.3297 41.8873 41.3606 41.7206 41.3577 41.5528C41.3547 41.3849 41.318 41.2194 41.2496 41.0661C41.1813 40.9128 41.0828 40.7748 40.96 40.6603Z" fill="#006CE4"/>
</svg>
