<svg width="70" height="70" viewBox="0 0 70 70" fill="none" xmlns="http://www.w3.org/2000/svg">
<rect width="70" height="70" rx="8" fill="#F1F6FE"/>
<path d="M22.5 44.75H21.25C20.2554 44.75 19.3016 44.3549 18.5983 43.6516C17.8951 42.9484 17.5 41.9946 17.5 41V36C17.5 35.0054 17.8951 34.0516 18.5983 33.3483C19.3016 32.6451 20.2554 32.25 21.25 32.25H22.5V44.75ZM22.5 47.25C23.163 47.25 23.7989 46.9866 24.2678 46.5178C24.7366 46.0489 25 45.413 25 44.75V32.25C25 31.587 24.7366 30.9511 24.2678 30.4822C23.7989 30.0134 23.163 29.75 22.5 29.75H21.25C19.5924 29.75 18.0027 30.4085 16.8306 31.5806C15.6585 32.7527 15 34.3424 15 36L15 41C15 42.6576 15.6585 44.2473 16.8306 45.4194C18.0027 46.5915 19.5924 47.25 21.25 47.25H22.5ZM48.75 44.75H47.5V32.25H48.75C49.7446 32.25 50.6984 32.6451 51.4016 33.3483C52.1049 34.0516 52.5 35.0054 52.5 36V41C52.5 41.9946 52.1049 42.9484 51.4016 43.6516C50.6984 44.3549 49.7446 44.75 48.75 44.75ZM48.75 47.25C50.4076 47.25 51.9973 46.5915 53.1694 45.4194C54.3415 44.2473 55 42.6576 55 41V36C55 34.3424 54.3415 32.7527 53.1694 31.5806C51.9973 30.4085 50.4076 29.75 48.75 29.75H47.5C46.837 29.75 46.2011 30.0134 45.7322 30.4822C45.2634 30.9511 45 31.587 45 32.25V44.75C45 45.413 45.2634 46.0489 45.7322 46.5178C46.2011 46.9866 46.837 47.25 47.5 47.25H48.75ZM22.5 31C22.5 27.6848 23.817 24.5054 26.1612 22.1612C28.5054 19.817 31.6848 18.5 35 18.5C38.3152 18.5 41.4946 19.817 43.8388 22.1612C46.183 24.5054 47.5 27.6848 47.5 31C47.5 31.3315 47.6317 31.6495 47.8661 31.8839C48.1005 32.1183 48.4185 32.25 48.75 32.25C49.0815 32.25 49.3995 32.1183 49.6339 31.8839C49.8683 31.6495 50 31.3315 50 31C50 29.0302 49.612 27.0796 48.8582 25.2597C48.1044 23.4399 46.9995 21.7863 45.6066 20.3934C44.2137 19.0005 42.5601 17.8956 40.7403 17.1418C38.9204 16.388 36.9698 16 35 16C33.0302 16 31.0796 16.388 29.2597 17.1418C27.4399 17.8956 25.7863 19.0005 24.3934 20.3934C23.0005 21.7863 21.8956 23.4399 21.1418 25.2597C20.388 27.0796 20 29.0302 20 31C20 31.3315 20.1317 31.6495 20.3661 31.8839C20.6005 32.1183 20.9185 32.25 21.25 32.25C21.5815 32.25 21.8995 32.1183 22.1339 31.8839C22.3683 31.6495 22.5 31.3315 22.5 31ZM40 53.5H43.75C45.4076 53.5 46.9973 52.8415 48.1694 51.6694C49.3415 50.4973 50 48.9076 50 47.25V46C50 45.6685 49.8683 45.3505 49.6339 45.1161C49.3995 44.8817 49.0815 44.75 48.75 44.75C48.4185 44.75 48.1005 44.8817 47.8661 45.1161C47.6317 45.3505 47.5 45.6685 47.5 46V47.25C47.5 48.2446 47.1049 49.1984 46.4016 49.9016C45.6984 50.6049 44.7446 51 43.75 51H40C39.6685 51 39.3505 51.1317 39.1161 51.3661C38.8817 51.6005 38.75 51.9185 38.75 52.25C38.75 52.5815 38.8817 52.8995 39.1161 53.1339C39.3505 53.3683 39.6685 53.5 40 53.5ZM37.5 53.5H35C34.6685 53.5 34.3505 53.3683 34.1161 53.1339C33.8817 52.8995 33.75 52.5815 33.75 52.25C33.75 51.9185 33.8817 51.6005 34.1161 51.3661C34.3505 51.1317 34.6685 51 35 51H37.5C37.8315 51 38.1495 51.1317 38.3839 51.3661C38.6183 51.6005 38.75 51.9185 38.75 52.25C38.75 52.5815 38.6183 52.8995 38.3839 53.1339C38.1495 53.3683 37.8315 53.5 37.5 53.5ZM37.5 56C38.4946 56 39.4484 55.6049 40.1516 54.9016C40.8549 54.1984 41.25 53.2446 41.25 52.25C41.25 51.2554 40.8549 50.3016 40.1516 49.5984C39.4484 48.8951 38.4946 48.5 37.5 48.5H35C34.0054 48.5 33.0516 48.8951 32.3483 49.5984C31.6451 50.3016 31.25 51.2554 31.25 52.25C31.25 53.2446 31.6451 54.1984 32.3483 54.9016C33.0516 55.6049 34.0054 56 35 56H37.5Z" fill="#006CE4"/>
</svg>
