<svg width="160" height="52" viewBox="0 0 160 52" xmlns="http://www.w3.org/2000/svg"><g clip-path="url(#a)" fill="white"><path d="M0 35.2024h4.0713c.7329 0 1.3978.0818 1.995.2456.597.1502 1.106.389 1.5267.7166.4343.3139.7668.7165.9975 1.2079.2307.4776.346 1.044.346 1.6991s-.1221 1.2283-.3664 1.7197c-.2307.4777-.5632.8803-.9975 1.2079-.4207.3139-.9364.5526-1.547.7164-.5972.1638-1.2622.2457-1.995.2457h-2.565v6.7353H0V35.2024Zm1.4657 6.5101h2.4835c1.1535 0 2.0288-.2252 2.626-.6756.5971-.4504.8957-1.1054.8957-1.9653 0-.9008-.3122-1.5559-.9364-1.9653-.6107-.4231-1.4725-.6346-2.5853-.6346H1.4657v5.2408ZM16.5194 43.5139c0-.8326-.2171-1.4535-.6513-1.8629-.4343-.4096-1.0654-.6142-1.8932-.6142-.57 0-1.0993.1023-1.5878.307-.4886.2048-.9025.4777-1.2418.8189l-.7736-.9213c.3937-.3957.9094-.7233 1.5471-.9826.6515-.2593 1.3844-.3889 2.1986-.3889.5157 0 .9975.075 1.4453.2252.4479.1364.8414.348 1.1807.6346.3393.2866.6039.6482.7939 1.085.19.4368.285.9485.285 1.5354v4.1968c0 .3685.0136.7506.0407 1.1464.0272.3958.0679.7301.1222 1.0032h-1.2418a10.2845 10.2845 0 0 1-.1018-.7575 8.0523 8.0523 0 0 1-.0407-.7984h-.0408c-.4342.6415-.9295 1.1055-1.4859 1.3921-.5429.2729-1.201.4094-1.9746.4094-.3664 0-.7464-.0546-1.14-.1638-.38-.0955-.7328-.2593-1.0586-.4913-.3121-.232-.5767-.5323-.7939-.9008-.2035-.3684-.3053-.8188-.3053-1.3511 0-.737.1832-1.3171.5496-1.7401.38-.4368.8821-.7576 1.5064-.9622.6243-.2184 1.3368-.3549 2.1374-.4095.8143-.0682 1.6557-.1024 2.5242-.1024v-.307Zm-.4071 1.3921c-.57 0-1.1467.0273-1.7303.0818-.57.041-1.0924.1365-1.5674.2866-.4614.1366-.8415.3412-1.14.6142-.2986.273-.4478.6347-.4478 1.0851 0 .3412.061.6278.1832.8598.1357.232.3121.4231.5293.5732.217.1365.4546.2388.7124.3071.2714.0546.5429.0819.8142.0819.4886 0 .923-.0819 1.3029-.2457.38-.1774.6989-.4094.9567-.696.2579-.3003.4547-.6415.5904-1.0237.1358-.3821.2035-.7847.2035-1.2078v-.7165h-.4071ZM21.388 42.2241c0-.2592-.0067-.5937-.0203-1.0031-.0136-.4094-.034-.7779-.0611-1.1055h1.3231c.0272.2593.0476.546.0612.8599.0135.3138.0203.5732.0203.7778h.0407c.2715-.5595.6786-1.0099 1.2214-1.3511.5429-.3548 1.1535-.5322 1.8321-.5322.1764 0 .3325.0068.4682.0204a2.582 2.582 0 0 1 .4479.082l-.1832 1.3101c-.0815-.0273-.2172-.0546-.4072-.0818-.19-.0273-.38-.041-.5699-.041-.3665 0-.7193.0682-1.0586.2047-.3393.1365-.6379.3548-.8958.6551-.2442.2866-.4478.6619-.6106 1.1259-.1493.4504-.2239.9964-.2239 1.6379v4.9133H21.388v-7.4724ZM32.7802 41.2826h-2.687v5.5889c0 .3548.0339.6482.1018.8802.0678.2321.1629.4163.2849.5528.1358.1228.2918.2115.4683.2661.1764.041.3664.0614.57.0614.19 0 .3868-.0273.5903-.0818a2.966 2.966 0 0 0 .6107-.2252l.061 1.2078a3.577 3.577 0 0 1-.7735.2047c-.2578.0547-.5428.0819-.8549.0819-.2579 0-.5293-.0341-.8143-.1023-.285-.0683-.5496-.198-.794-.389-.2442-.1911-.4478-.4504-.6107-.7779-.1492-.3276-.2239-.7575-.2239-1.2897v-5.9779h-1.9745v-1.1669h1.9745v-2.7024h1.3843v2.7024h2.687v1.1669ZM36.1884 40.1155c.0271.2593.0476.546.0611.8599.0136.3138.0203.5732.0203.7778h.0408c.2714-.5595.7124-1.0099 1.3231-1.3511.6108-.3548 1.2554-.5322 1.9339-.5322 1.2078 0 2.1103.3616 2.7074 1.085.6108.7233.9161 1.6787.9161 2.866v5.8756h-1.3843v-5.3023c0-.505-.0407-.9622-.1221-1.3717-.0814-.4094-.2239-.7574-.4275-1.044-.19-.3003-.4546-.5323-.7939-.6961-.3257-.1638-.7396-.2456-1.2417-.2456-.3664 0-.7261.0751-1.079.2252-.3392.1501-.6446.3821-.916.696-.2714.3002-.4885.6892-.6514 1.1669-.1629.464-.2443 1.0168-.2443 1.6583v4.9133h-1.3842v-7.4724c0-.2592-.0068-.5937-.0204-1.0031-.0135-.4094-.0339-.7779-.0611-1.1055h1.3232ZM54.0414 44.169c-.0407-.9007-.3325-1.6446-.8753-2.2314-.5292-.6006-1.2892-.9008-2.2799-.9008-.4614 0-.8889.0887-1.2825.2661a3.1628 3.1628 0 0 0-1.0382.6961c-.2985.2866-.536.6209-.7125 1.0031a3.163 3.163 0 0 0-.3053 1.1669h6.4937Zm1.4047.4504v.307a3.191 3.191 0 0 1-.0203.348h-7.8984c.0135.4777.1086.9281.2849 1.3513.1765.423.4208.7915.7329 1.1054.3121.3139.6786.5664 1.0993.7575.4207.1774.8753.2661 1.3639.2661.7192 0 1.3367-.1637 1.8524-.4913.5293-.3412.9296-.7302 1.2011-1.1669l1.0381.8189c-.57.7233-1.201 1.242-1.8932 1.5559-.6785.3139-1.4114.4708-2.1984.4708-.7058 0-1.3639-.1228-1.9746-.3685-.5972-.2593-1.1129-.6142-1.5471-1.0646-.4343-.4504-.7804-.9826-1.0382-1.5967-.2443-.6142-.3665-1.283-.3665-2.0063s.1222-1.3921.3665-2.0063c.2442-.6141.5835-1.1465 1.0178-1.5968.4343-.4504.9432-.7984 1.5267-1.0441.5836-.2593 1.2146-.3889 1.8932-.3889.7464 0 1.4046.1296 1.9746.3889.5699.2457 1.045.5869 1.425 1.0236.3799.4231.6649.9213.8549 1.4945.2036.5732.3054 1.1874.3054 1.8425ZM58.4243 42.2241c0-.2592-.0069-.5937-.0205-1.0031-.0135-.4094-.0338-.7779-.061-1.1055h1.3232c.0271.2593.0475.546.061.8599.0136.3138.0204.5732.0204.7778h.0407c.2714-.5595.6785-1.0099 1.2214-1.3511.5428-.3548 1.1536-.5322 1.832-.5322.1765 0 .3325.0068.4683.0204.1493.0137.2985.041.4478.082l-.1832 1.3101c-.0814-.0273-.2171-.0546-.4071-.0818a4.003 4.003 0 0 0-.57-.041c-.3664 0-.7193.0682-1.0585.2047-.3393.1365-.6379.3548-.8957.6551-.2443.2866-.4478.6619-.6107 1.1259-.1493.4504-.2239.9964-.2239 1.6379v4.9133h-1.3842v-7.4724ZM70.9297 35.2024h1.4656v6.2849h7.8577v-6.2849h1.4656v14.4942H80.253v-6.8581h-7.8577v6.8581h-1.4656V35.2024ZM92.3815 49.6967a14.2677 14.2677 0 0 1-.0611-.8599c-.0135-.3139-.0203-.5732-.0203-.778h-.0407c-.2715.5597-.7125 1.0168-1.3232 1.3717-.6107.3412-1.2553.5118-1.9339.5118-1.2078 0-2.1171-.3617-2.7278-1.085-.5971-.7234-.8956-1.6787-.8956-2.8661v-5.8755h1.3842v5.3023c0 .505.0407.9621.1221 1.3716.0815.4095.2172.7643.4071 1.0646.2036.2866.4683.5118.794.6756.3393.1637.76.2456 1.2621.2456.3664 0 .7192-.0751 1.0586-.2252.3528-.1501.665-.3753.9363-.6756.2714-.3139.4886-.7029.6515-1.1669.1628-.4777.2442-1.0372.2442-1.6787v-4.9133h1.3845v7.4723c0 .2593.0065.5938.0204 1.0032.0129.4094.0333.7779.061 1.1055h-1.3234ZM98.7136 48.0793v1.6173h-1.3845V34.2197h1.3845v7.5542h.0407c.4069-.6278.936-1.0987 1.5867-1.4126.652-.3275 1.324-.4913 2.016-.4913.747 0 1.418.1297 2.015.3889.611.2594 1.126.6142 1.547 1.0646.435.4504.767.9827.998 1.5969.244.6141.366 1.276.366 1.9858 0 .7096-.122 1.3716-.366 1.9857-.231.6142-.563 1.1465-.998 1.5969-.421.4504-.936.8051-1.547 1.0645-.597.2593-1.268.389-2.015.389-.692 0-1.364-.157-2.016-.4709-.6507-.3139-1.1798-.778-1.5867-1.3921h-.0407Zm7.1034-3.1731c0-.5323-.081-1.0305-.244-1.4945-.163-.4777-.4-.8871-.712-1.2283-.299-.3549-.672-.6347-1.12-.8394-.448-.2047-.956-.3071-1.527-.3071-.529 0-1.017.1024-1.465.3071-.448.1911-.8349.4641-1.1605.8188-.3255.3413-.5836.7508-.7732 1.2284-.1766.464-.2654.969-.2654 1.515 0 .5459.0888 1.0577.2654 1.5353.1896.4641.4477.8667.7732 1.2079.3256.3412.7125.6142 1.1605.8189.448.191.936.2865 1.465.2865.571 0 1.079-.0955 1.527-.2865.448-.2047.821-.4777 1.12-.8189.312-.3548.549-.7643.712-1.2283.163-.4777.244-.9827.244-1.5149ZM62.7588 2.4375C62.7588 1.0905 63.8467 0 65.186 0c1.3444 0 2.4349 1.0904 2.4349 2.4375 0 1.347-1.0905 2.44-2.4349 2.44-1.3419 0-2.4272-1.093-2.4272-2.44ZM103.552 21.0905c1.341 0 2.434-1.093 2.434-2.4375 0-1.347-1.091-2.4374-2.434-2.4374-1.341 0-2.431 1.0904-2.431 2.4374 0 1.3445 1.09 2.4375 2.431 2.4375ZM22.8451 5.9705c-4.4311 0-7.6459 3.1917-7.6459 7.5894 0 4.3976 3.2148 7.5895 7.6459 7.5895 4.449 0 7.6767-3.1919 7.6767-7.5895 0-4.3977-3.2277-7.5894-7.6767-7.5894Zm0 11.6304c-2.0937 0-3.5484-1.6651-3.5484-4.041 0-2.3759 1.4547-4.0384 3.5484-4.0384 2.1064 0 3.5792 1.6625 3.5792 4.0384.0026 2.4144-1.4394 4.041-3.5792 4.041ZM58.0451 13.9402c-.1719-.3207-.3669-.5978-.5799-.8133l-.1334-.1437.1411-.1335c.2053-.2155.4105-.4694.6132-.7646l3.9077-5.8113h-4.7441l-2.9378 4.5439c-.1668.2437-.5028.3695-1.0058.3695h-.6696V2.5919c0-1.719-1.0699-1.9525-2.227-1.9525h-1.9808l.0025 20.2899h4.2053v-6.0886h.3951c.4798 0 .8057.0565.9571.3131l2.3194 4.3797c.6491 1.1853 1.2931 1.3907 2.5092 1.3907h3.2252l-2.4016-3.9692-1.5958-3.0148ZM78.4636 5.939c-2.1372 0-3.5022.9519-4.2694 1.7524l-.2565.2591-.0898-.354c-.2232-.857-.9801-1.3342-2.1193-1.3342h-1.8858v14.6554h4.1898v-6.753c0-.6568.0873-1.2341.2617-1.755.4645-1.5805 1.7627-2.5657 3.3842-2.5657 1.3034 0 1.8114.6876 1.8114 2.4682v6.3811c0 1.5189.703 2.227 2.2245 2.227h1.9782V11.599c-.0051-3.7024-1.8089-5.66-5.229-5.66ZM65.2386 6.2703h-1.9808v14.6529h4.1796V8.4999c0-1.5035-.7158-2.2296-2.1988-2.2296ZM39.2555 5.9705c-4.4336 0-7.651 3.1917-7.651 7.5894 0 4.3976 3.2174 7.5895 7.651 7.5895 4.4439 0 7.6767-3.1919 7.6767-7.5895 0-4.3977-3.2354-7.5894-7.6767-7.5894Zm0 11.6304c-2.0936 0-3.551-1.6651-3.551-4.041 0-2.3759 1.4574-4.0384 3.551-4.0384 2.1013 0 3.5766 1.6625 3.5766 4.0384-.0025 2.4144-1.4393 4.041-3.5766 4.041ZM128.793 5.9705c-4.431 0-7.648 3.1917-7.648 7.5894 0 4.3976 3.217 7.5895 7.648 7.5895 4.446 0 7.679-3.1919 7.679-7.5895 0-4.3977-3.233-7.5894-7.679-7.5894Zm0 11.6304c-2.094 0-3.554-1.6651-3.554-4.041 0-2.3759 1.46-4.0384 3.554-4.0384 2.104 0 3.582 1.6625 3.582 4.0384 0 2.4144-1.443 4.041-3.582 4.041ZM97.5408 6.2326c-.7936 0-1.404.313-1.712.8929l-.1128.2258-.1924-.1694c-.6742-.585-1.883-1.2752-3.8459-1.2752-3.905 0-6.54 2.9327-6.54 7.2995 0 4.3592 2.7222 7.4048 6.6171 7.4048 1.3291 0 2.3806-.3053 3.2148-.9391l.3228-.2437v.408c0 1.9602-1.2643 3.0403-3.5634 3.0403-1.1135 0-2.1269-.272-2.8069-.5183-.8852-.2694-1.406-.0461-1.7652.8417l-.803 2.0192.2924.1565c1.4728.7774 3.3791 1.2444 5.1059 1.2444 3.5559 0 7.7122-1.8217 7.7122-6.9455V6.2352h-1.9236v-.0026Zm-5.0442 10.7248c-2.2814 0-3.0947-1.9962-3.0947-3.8615 0-.8236.2053-3.5047 2.8711-3.5047 1.3269 0 3.099.3771 3.099 3.6432.0027 3.079-1.5621 3.723-2.8754 3.723ZM11.633 10.5227l-.6158-.3439.5363-.4567c.626-.5388 1.6703-1.7421 1.6703-3.8306 0-3.1892-2.4734-5.247-6.3014-5.247H2.0552C.9185.6855.0128 1.6067 0 2.751v18.1013h7.0096c4.2565 0 7.0045-2.3169 7.0045-5.9037 0-1.9347-.8903-3.5844-2.3811-4.4259ZM3.8897 5.3963c0-.9365.3976-1.383 1.2674-1.4394h1.7396c1.4907 0 2.3862.8929 2.3862 2.3887 0 1.1392-.6133 2.4657-2.3323 2.4657h-3.061v-3.415Zm3.3996 12.0359-3.3996-.0026v-4.0667c0-.8697.3386-1.3214 1.0827-1.424h2.3169c1.6549 0 2.7273 1.0417 2.7273 2.7326 0 1.7343-1.0442 2.7607-2.7273 2.7607ZM155.134 5.9849c-1.736 0-3.413.8082-4.486 2.1731l-.305.3823-.236-.431c-.772-1.4086-2.104-2.1244-3.959-2.1244-1.94 0-3.241 1.0827-3.846 1.7267l-.396.4285-.151-.5645c-.223-.8133-.944-1.2572-2.042-1.2572h-1.755v14.5991h3.971v-6.4451c0-.5671.072-1.1238.214-1.7063.379-1.5574 1.426-3.2328 3.186-3.066 1.086.1078 1.617.9441 1.617 2.5632v8.6542h4.017v-6.4451c0-.7056.065-1.2342.227-1.7627.323-1.4856 1.413-3.0097 3.112-3.0097 1.229 0 1.683.6953 1.683 2.5633v6.5194c0 1.478.657 2.1348 2.132 2.1348H160v-9.3213c-.003-3.7255-1.644-5.6113-4.866-5.6113ZM118.837 15.848c-.013.0153-1.732 1.8241-3.99 1.8241-2.06 0-4.141-1.2623-4.141-4.0872 0-2.4348 1.614-4.1385 3.923-4.1385.749 0 1.604.2694 1.734.7236l.021.0769c.306 1.0212 1.239 1.0776 1.421 1.0776h2.184v-1.909c0-2.5194-3.205-3.4328-5.36-3.4328-4.61 0-7.962 3.2123-7.962 7.633 0 4.4233 3.31 7.628 7.875 7.628 3.964 0 6.249-2.771 6.249-2.771l-1.728-2.8736-.226.2489Z"></path></g><defs><clipPath id="a"><path d="M0 0h160v52H0z"></path></clipPath></defs></svg>