<svg class="paragraph--type--quote__wrapper-icon" width="68" height="44" viewBox="0 0 68 44" fill="#bad4f7" xmlns="http://www.w3.org/2000/svg">
      <path d="M58.2674 40.2871C57.6842 42.4765 55.7016 44 53.4359 44H40.4459C37.0319 44 34.6219 40.6544 35.7033 37.4163L47.0573 3.41627C47.7386 1.37588 49.6487 0 51.7998 0H62.4936C65.7782 0 68.1706 3.11317 67.3251 6.28712L58.2674 40.2871ZM23.6254 40.3377C23.0244 42.502 21.0539 44 18.8076 44H5.99066C2.56254 44 0.151155 40.6286 1.25888 37.3844L12.868 3.38436C13.5591 1.36034 15.461 0 17.5998 0H28.248C31.5544 0 33.9503 3.15183 33.0658 6.33769L23.6254 40.3377Z" fill="var(--bui_color_primary_light)"></path>
    </svg>