<svg width="70" height="70" viewBox="0 0 70 70" fill="none" xmlns="http://www.w3.org/2000/svg">
<rect width="70" height="70" rx="8" fill="#F1F6FE"/>
<path d="M15 39.75V54.75C15 55.0815 15.1317 55.3995 15.3661 55.6339C15.6005 55.8683 15.9185 56 16.25 56C16.5815 56 16.8995 55.8683 17.1339 55.6339C17.3683 55.3995 17.5 55.0815 17.5 54.75V39.75C17.5 39.4185 17.3683 39.1005 17.1339 38.8661C16.8995 38.6317 16.5815 38.5 16.25 38.5C15.9185 38.5 15.6005 38.6317 15.3661 38.8661C15.1317 39.1005 15 39.4185 15 39.75ZM16.25 53.5H43.75C44.0815 53.5 44.3995 53.3683 44.6339 53.1339C44.8683 52.8995 45 52.5815 45 52.25C45 50.5924 44.3415 49.0027 43.1694 47.8306C41.9973 46.6585 40.4076 46 38.75 46H32.5L33.75 47.25C33.75 45.5924 33.0915 44.0027 31.9194 42.8306C30.7473 41.6585 29.1576 41 27.5 41H16.25C15.9185 41 15.6005 41.1317 15.3661 41.3661C15.1317 41.6005 15 41.9185 15 42.25C15 42.5815 15.1317 42.8995 15.3661 43.1339C15.6005 43.3683 15.9185 43.5 16.25 43.5H27.5C28.4946 43.5 29.4484 43.8951 30.1516 44.5983C30.8549 45.3016 31.25 46.2554 31.25 47.25C31.25 47.94 31.81 48.5 32.5 48.5H38.75C39.7446 48.5 40.6984 48.8951 41.4016 49.5984C42.1049 50.3016 42.5 51.2554 42.5 52.25L43.75 51H16.25C15.9185 51 15.6005 51.1317 15.3661 51.3661C15.1317 51.6005 15 51.9185 15 52.25C15 52.5815 15.1317 52.8995 15.3661 53.1339C15.6005 53.3683 15.9185 53.5 16.25 53.5ZM26.25 48.5H32.5C32.8315 48.5 33.1495 48.3683 33.3839 48.1339C33.6183 47.8995 33.75 47.5815 33.75 47.25C33.75 46.9185 33.6183 46.6005 33.3839 46.3661C33.1495 46.1317 32.8315 46 32.5 46H26.25C25.9185 46 25.6005 46.1317 25.3661 46.3661C25.1317 46.6005 25 46.9185 25 47.25C25 47.5815 25.1317 47.8995 25.3661 48.1339C25.6005 48.3683 25.9185 48.5 26.25 48.5ZM46.25 21H42.8617C42.0519 21.0001 41.2675 21.2821 40.643 21.7975C40.0185 22.3129 39.5928 23.0296 39.4391 23.8246C39.2853 24.6196 39.413 25.4433 39.8003 26.1544C40.1877 26.8655 40.8104 27.4196 41.5617 27.7217L45.0033 29.0983C45.2157 29.184 45.3916 29.3409 45.501 29.542C45.6104 29.7432 45.6464 29.9762 45.6028 30.201C45.5593 30.4258 45.4389 30.6284 45.2623 30.7742C45.0858 30.92 44.864 30.9998 44.635 31H41.25C40.9185 31 40.6005 31.1317 40.3661 31.3661C40.1317 31.6005 40 31.9185 40 32.25C40 32.5815 40.1317 32.8995 40.3661 33.1339C40.6005 33.3683 40.9185 33.5 41.25 33.5H44.635C45.4447 33.4999 46.2292 33.2179 46.8537 32.7025C47.4782 32.1871 47.9039 31.4704 48.0576 30.6754C48.2114 29.8804 48.0836 29.0567 47.6963 28.3456C47.309 27.6345 46.6863 27.0804 45.935 26.7783L42.4933 25.4017C42.2809 25.3159 42.1048 25.1589 41.9955 24.9576C41.8861 24.7563 41.8502 24.5231 41.894 24.2982C41.9378 24.0733 42.0584 23.8707 42.2353 23.725C42.4122 23.5794 42.6342 23.4998 42.8633 23.5H46.25C46.5815 23.5 46.8995 23.3683 47.1339 23.1339C47.3683 22.8995 47.5 22.5815 47.5 22.25C47.5 21.9185 47.3683 21.6005 47.1339 21.3661C46.8995 21.1317 46.5815 21 46.25 21ZM45 22.25V21C45 20.6685 44.8683 20.3505 44.6339 20.1161C44.3995 19.8817 44.0815 19.75 43.75 19.75C43.4185 19.75 43.1005 19.8817 42.8661 20.1161C42.6317 20.3505 42.5 20.6685 42.5 21V22.25C42.5 22.5815 42.6317 22.8995 42.8661 23.1339C43.1005 23.3683 43.4185 23.5 43.75 23.5C44.0815 23.5 44.3995 23.3683 44.6339 23.1339C44.8683 22.8995 45 22.5815 45 22.25ZM45 33.5V32.25C45 31.9185 44.8683 31.6005 44.6339 31.3661C44.3995 31.1317 44.0815 31 43.75 31C43.4185 31 43.1005 31.1317 42.8661 31.3661C42.6317 31.6005 42.5 31.9185 42.5 32.25V33.5C42.5 33.8315 42.6317 34.1495 42.8661 34.3839C43.1005 34.6183 43.4185 34.75 43.75 34.75C44.0815 34.75 44.3995 34.6183 44.6339 34.3839C44.8683 34.1495 45 33.8315 45 33.5ZM52.5 27.25C52.5 29.5706 51.5781 31.7962 49.9372 33.4372C48.2962 35.0781 46.0706 36 43.75 36C41.4294 36 39.2038 35.0781 37.5628 33.4372C35.9219 31.7962 35 29.5706 35 27.25C35 24.9294 35.9219 22.7038 37.5628 21.0628C39.2038 19.4219 41.4294 18.5 43.75 18.5C46.0706 18.5 48.2962 19.4219 49.9372 21.0628C51.5781 22.7038 52.5 24.9294 52.5 27.25ZM55 27.25C55 24.2663 53.8147 21.4048 51.7049 19.295C49.5952 17.1853 46.7337 16 43.75 16C40.7663 16 37.9048 17.1853 35.795 19.295C33.6853 21.4048 32.5 24.2663 32.5 27.25C32.5 30.2337 33.6853 33.0952 35.795 35.205C37.9048 37.3147 40.7663 38.5 43.75 38.5C46.7337 38.5 49.5952 37.3147 51.7049 35.205C53.8147 33.0952 55 30.2337 55 27.25Z" fill="#006CE4"/>
</svg>
