<svg class="icon-svg icon-svg__globe" width="24" height="24" viewBox="0 0 24 24" fill="white" xmlns="http://www.w3.org/2000/svg"><path d="M22.5 12c0 5.799-4.701 10.5-10.5 10.5S1.5 17.799 1.5 12 6.201 1.5 12 1.5 22.5 6.201 22.5 12Zm1.5 0c0-6.627-5.373-12-12-12S0 5.373 0 12s5.373 12 12 12 12-5.373 12-12ZM9.909 22.498C8.442 20.349 7.5 16.381 7.5 12c0-4.381.942-8.347 2.409-10.498A.7502.7502 0 0 0 9.712.459a.7505.7505 0 0 0-1.043.197C7.01 3.091 6 7.343 6 12c0 4.657 1.01 8.91 2.67 11.343a.749.749 0 0 0 .4812.3251.7497.7497 0 0 0 .8784-.8995.7504.7504 0 0 0-.1206-.2706ZM.75 12.75h22.5A.7497.7497 0 0 0 24 12a.7497.7497 0 0 0-.75-.75H.75a.7498.7498 0 0 0-.5303 1.2803.7498.7498 0 0 0 .5303.2197Zm1.732 6h19.036a.7497.7497 0 0 0 .75-.75.7497.7497 0 0 0-.75-.75H2.482a.7498.7498 0 0 0-.5303 1.2803.7498.7498 0 0 0 .5303.2197Zm0-12h19.036a.7499.7499 0 0 0 .5303-1.2803.7499.7499 0 0 0-.5303-.2197H2.482a.75.75 0 0 0 0 1.5Zm11.61-5.248C15.557 3.652 16.5 7.619 16.5 12c0 4.381-.942 8.347-2.409 10.498a.7501.7501 0 0 0 .4669 1.157.7508.7508 0 0 0 .7731-.312C16.99 20.91 18 16.657 18 12S16.99 3.09 15.33.656a.75.75 0 1 0-1.239.846h.001Z"></path></svg>